<?xml version="1.0" standalone="no"?>
<!DOCTYPE svg PUBLIC "-//W3C//DTD SVG 1.1//EN" "http://www.w3.org/Graphics/SVG/1.1/DTD/svg11.dtd">
<svg version="1.1" xmlns="http://www.w3.org/2000/svg" viewBox="0 0 97.90560554998319 21.256626830818277" width="195.81121109996639" height="42.513253661636554"><!-- svg-source:excalidraw --><metadata></metadata><defs><style class="style-fonts">
      </style></defs><g stroke-linecap="round"><g transform="translate(10 10.734812413807958) rotate(0 38.952802774991596 -0.10649899840063881)"><path d="M0 0 C16.75 -1.18, 30.94 1.44, 53.89 0 M0 0 C19.24 -0.43, 39.07 -0.77, 53.89 0 M53.89 0 C63.43 -1.55, 73.89 -0.3, 77.91 0.52 M53.89 0 C63.01 0.28, 70.82 0.16, 77.91 0.52" stroke="#ededed" stroke-width="4" fill="none"></path></g><g transform="translate(10 10.734812413807958) rotate(0 38.952802774991596 -0.10649899840063881)"><path d="M66.49 4.25 C70.44 2.25, 72.82 2.73, 77.91 0.52 M66.49 4.25 C70.48 2.8, 74.81 1.24, 77.91 0.52" stroke="#ededed" stroke-width="4" fill="none"></path></g><g transform="translate(10 10.734812413807958) rotate(0 38.952802774991596 -0.10649899840063881)"><path d="M66.76 -3.96 C70.58 -3.56, 72.88 -0.67, 77.91 0.52 M66.76 -3.96 C70.63 -2.44, 74.86 -1.03, 77.91 0.52" stroke="#ededed" stroke-width="4" fill="none"></path></g></g><mask></mask></svg>